<mxfile host="app.diagrams.net" modified="2022-04-12T08:51:46.499Z" agent="5.0 (Windows NT 10.0; Win64; x64) AppleWebKit/537.36 (KHTML, like Gecko) Chrome/100.0.4896.60 Safari/537.36" etag="6L6GLfWTP3uGYdNY_44x" version="17.1.3" type="github">
  <diagram id="qLWURkrCvWn62ROYBESy" name="第 1 页">
    <mxGraphModel dx="2167" dy="796" grid="0" gridSize="10" guides="1" tooltips="1" connect="1" arrows="1" fold="1" page="0" pageScale="1" pageWidth="827" pageHeight="1169" math="0" shadow="1">
      <root>
        <mxCell id="0" />
        <mxCell id="1" parent="0" />
        <mxCell id="Iy00GChJmjbiaG7sKxw5-16" value="" style="edgeStyle=none;curved=1;rounded=0;orthogonalLoop=1;jettySize=auto;html=1;fontFamily=Architects Daughter;fontSource=https%3A%2F%2Ffonts.googleapis.com%2Fcss%3Ffamily%3DArchitects%2BDaughter;endArrow=open;startSize=14;endSize=14;sourcePerimeterSpacing=8;targetPerimeterSpacing=8;sketch=1;" edge="1" parent="1" source="Iy00GChJmjbiaG7sKxw5-1" target="Iy00GChJmjbiaG7sKxw5-13">
          <mxGeometry relative="1" as="geometry" />
        </mxCell>
        <mxCell id="Iy00GChJmjbiaG7sKxw5-1" value="开始" style="strokeWidth=2;html=1;shape=mxgraph.flowchart.start_1;whiteSpace=wrap;hachureGap=4;sketch=1;shadow=1;" vertex="1" parent="1">
          <mxGeometry x="-219" y="144" width="90" height="57" as="geometry" />
        </mxCell>
        <mxCell id="Iy00GChJmjbiaG7sKxw5-2" value="" style="shape=table;startSize=0;container=1;collapsible=0;childLayout=tableLayout;hachureGap=4;fontFamily=Architects Daughter;fontSource=https%3A%2F%2Ffonts.googleapis.com%2Fcss%3Ffamily%3DArchitects%2BDaughter;sketch=1;rounded=1;swimlaneLine=1;shadow=1;" vertex="1" parent="1">
          <mxGeometry x="-234" y="260" width="101" height="154" as="geometry" />
        </mxCell>
        <mxCell id="Iy00GChJmjbiaG7sKxw5-3" value="" style="shape=tableRow;horizontal=0;startSize=0;swimlaneHead=0;swimlaneBody=0;top=0;left=0;bottom=0;right=0;collapsible=0;dropTarget=0;fillColor=none;points=[[0,0.5],[1,0.5]];portConstraint=eastwest;hachureGap=4;sketch=1;" vertex="1" parent="Iy00GChJmjbiaG7sKxw5-2">
          <mxGeometry width="101" height="54" as="geometry" />
        </mxCell>
        <mxCell id="Iy00GChJmjbiaG7sKxw5-4" value="订单信息" style="shape=partialRectangle;html=1;whiteSpace=wrap;connectable=0;overflow=hidden;fillColor=none;top=0;left=0;bottom=0;right=0;pointerEvents=1;hachureGap=4;sketch=1;" vertex="1" parent="Iy00GChJmjbiaG7sKxw5-3">
          <mxGeometry width="101" height="54" as="geometry">
            <mxRectangle width="101" height="54" as="alternateBounds" />
          </mxGeometry>
        </mxCell>
        <mxCell id="Iy00GChJmjbiaG7sKxw5-5" value="" style="shape=tableRow;horizontal=0;startSize=0;swimlaneHead=0;swimlaneBody=0;top=0;left=0;bottom=0;right=0;collapsible=0;dropTarget=0;fillColor=none;points=[[0,0.5],[1,0.5]];portConstraint=eastwest;hachureGap=4;rounded=1;sketch=1;" vertex="1" parent="Iy00GChJmjbiaG7sKxw5-2">
          <mxGeometry y="54" width="101" height="52" as="geometry" />
        </mxCell>
        <mxCell id="Iy00GChJmjbiaG7sKxw5-6" value="货品信息" style="shape=partialRectangle;html=1;whiteSpace=wrap;connectable=0;overflow=hidden;fillColor=none;top=0;left=0;bottom=0;right=0;pointerEvents=1;hachureGap=4;sketch=1;" vertex="1" parent="Iy00GChJmjbiaG7sKxw5-5">
          <mxGeometry width="101" height="52" as="geometry">
            <mxRectangle width="101" height="52" as="alternateBounds" />
          </mxGeometry>
        </mxCell>
        <mxCell id="Iy00GChJmjbiaG7sKxw5-7" value="" style="shape=tableRow;horizontal=0;startSize=0;swimlaneHead=0;swimlaneBody=0;top=0;left=0;bottom=0;right=0;collapsible=0;dropTarget=0;fillColor=none;points=[[0,0.5],[1,0.5]];portConstraint=eastwest;hachureGap=4;sketch=1;" vertex="1" parent="Iy00GChJmjbiaG7sKxw5-2">
          <mxGeometry y="106" width="101" height="48" as="geometry" />
        </mxCell>
        <mxCell id="Iy00GChJmjbiaG7sKxw5-8" value="操作人信息" style="shape=partialRectangle;html=1;whiteSpace=wrap;connectable=0;overflow=hidden;fillColor=none;top=0;left=0;bottom=0;right=0;pointerEvents=1;hachureGap=4;sketch=1;" vertex="1" parent="Iy00GChJmjbiaG7sKxw5-7">
          <mxGeometry width="101" height="48" as="geometry">
            <mxRectangle width="101" height="48" as="alternateBounds" />
          </mxGeometry>
        </mxCell>
        <mxCell id="Iy00GChJmjbiaG7sKxw5-18" value="" style="edgeStyle=none;curved=1;rounded=0;orthogonalLoop=1;jettySize=auto;html=1;fontFamily=Architects Daughter;fontSource=https%3A%2F%2Ffonts.googleapis.com%2Fcss%3Ffamily%3DArchitects%2BDaughter;endArrow=open;startSize=14;endSize=14;sourcePerimeterSpacing=8;targetPerimeterSpacing=8;sketch=1;" edge="1" parent="1" source="Iy00GChJmjbiaG7sKxw5-13" target="Iy00GChJmjbiaG7sKxw5-17">
          <mxGeometry relative="1" as="geometry" />
        </mxCell>
        <mxCell id="Iy00GChJmjbiaG7sKxw5-13" value="参数校验" style="rounded=1;whiteSpace=wrap;html=1;absoluteArcSize=1;arcSize=14;strokeWidth=2;shadow=1;sketch=1;hachureGap=4;fontFamily=Architects Daughter;fontSource=https%3A%2F%2Ffonts.googleapis.com%2Fcss%3Ffamily%3DArchitects%2BDaughter;" vertex="1" parent="1">
          <mxGeometry x="-56" y="148.5" width="113.5" height="48" as="geometry" />
        </mxCell>
        <mxCell id="Iy00GChJmjbiaG7sKxw5-37" value="" style="edgeStyle=none;curved=1;rounded=0;sketch=1;hachureGap=4;orthogonalLoop=1;jettySize=auto;html=1;fontFamily=Architects Daughter;fontSource=https%3A%2F%2Ffonts.googleapis.com%2Fcss%3Ffamily%3DArchitects%2BDaughter;fontSize=16;endArrow=open;startSize=14;endSize=14;sourcePerimeterSpacing=8;targetPerimeterSpacing=8;" edge="1" parent="1" source="Iy00GChJmjbiaG7sKxw5-17" target="Iy00GChJmjbiaG7sKxw5-36">
          <mxGeometry relative="1" as="geometry" />
        </mxCell>
        <mxCell id="Iy00GChJmjbiaG7sKxw5-17" value="初始化配置" style="rounded=1;whiteSpace=wrap;html=1;absoluteArcSize=1;arcSize=14;strokeWidth=2;shadow=1;sketch=1;hachureGap=4;fontFamily=Architects Daughter;fontSource=https%3A%2F%2Ffonts.googleapis.com%2Fcss%3Ffamily%3DArchitects%2BDaughter;" vertex="1" parent="1">
          <mxGeometry x="121" y="148.5" width="113.5" height="48" as="geometry" />
        </mxCell>
        <mxCell id="Iy00GChJmjbiaG7sKxw5-51" value="" style="edgeStyle=none;rounded=1;sketch=1;hachureGap=4;orthogonalLoop=1;jettySize=auto;html=1;fontFamily=Architects Daughter;fontSource=https%3A%2F%2Ffonts.googleapis.com%2Fcss%3Ffamily%3DArchitects%2BDaughter;fontSize=12;endArrow=open;startSize=14;endSize=14;sourcePerimeterSpacing=8;targetPerimeterSpacing=8;" edge="1" parent="1" source="Iy00GChJmjbiaG7sKxw5-30" target="Iy00GChJmjbiaG7sKxw5-50">
          <mxGeometry relative="1" as="geometry" />
        </mxCell>
        <mxCell id="Iy00GChJmjbiaG7sKxw5-30" value="检查收款账户&lt;br&gt;检查支付状态" style="rounded=1;whiteSpace=wrap;html=1;absoluteArcSize=1;arcSize=14;strokeWidth=2;shadow=1;sketch=1;hachureGap=4;fontFamily=Architects Daughter;fontSource=https%3A%2F%2Ffonts.googleapis.com%2Fcss%3Ffamily%3DArchitects%2BDaughter;" vertex="1" parent="1">
          <mxGeometry x="718" y="142" width="113.5" height="48" as="geometry" />
        </mxCell>
        <mxCell id="Iy00GChJmjbiaG7sKxw5-42" style="edgeStyle=none;rounded=1;sketch=1;hachureGap=4;orthogonalLoop=1;jettySize=auto;html=1;entryX=0;entryY=0.5;entryDx=0;entryDy=0;fontFamily=Architects Daughter;fontSource=https%3A%2F%2Ffonts.googleapis.com%2Fcss%3Ffamily%3DArchitects%2BDaughter;fontSize=12;endArrow=open;startSize=14;endSize=14;sourcePerimeterSpacing=8;targetPerimeterSpacing=8;exitX=0.5;exitY=0;exitDx=0;exitDy=0;exitPerimeter=0;" edge="1" parent="1" source="Iy00GChJmjbiaG7sKxw5-36" target="Iy00GChJmjbiaG7sKxw5-40">
          <mxGeometry relative="1" as="geometry">
            <Array as="points">
              <mxPoint x="355" y="70" />
            </Array>
          </mxGeometry>
        </mxCell>
        <mxCell id="Iy00GChJmjbiaG7sKxw5-44" style="edgeStyle=none;rounded=1;sketch=1;hachureGap=4;orthogonalLoop=1;jettySize=auto;html=1;entryX=0;entryY=0.5;entryDx=0;entryDy=0;fontFamily=Architects Daughter;fontSource=https%3A%2F%2Ffonts.googleapis.com%2Fcss%3Ffamily%3DArchitects%2BDaughter;fontSize=12;endArrow=open;startSize=14;endSize=14;sourcePerimeterSpacing=8;targetPerimeterSpacing=8;" edge="1" parent="1" source="Iy00GChJmjbiaG7sKxw5-36" target="Iy00GChJmjbiaG7sKxw5-43">
          <mxGeometry relative="1" as="geometry">
            <Array as="points">
              <mxPoint x="351" y="286" />
            </Array>
          </mxGeometry>
        </mxCell>
        <mxCell id="Iy00GChJmjbiaG7sKxw5-36" value="原始单号为空" style="strokeWidth=2;html=1;shape=mxgraph.flowchart.decision;whiteSpace=wrap;sketch=1;hachureGap=4;fontFamily=Architects Daughter;fontSource=https%3A%2F%2Ffonts.googleapis.com%2Fcss%3Ffamily%3DArchitects%2BDaughter;fontSize=12;" vertex="1" parent="1">
          <mxGeometry x="298" y="136" width="113" height="73" as="geometry" />
        </mxCell>
        <mxCell id="Iy00GChJmjbiaG7sKxw5-45" style="edgeStyle=none;rounded=1;sketch=1;hachureGap=4;orthogonalLoop=1;jettySize=auto;html=1;entryX=0;entryY=0.5;entryDx=0;entryDy=0;fontFamily=Architects Daughter;fontSource=https%3A%2F%2Ffonts.googleapis.com%2Fcss%3Ffamily%3DArchitects%2BDaughter;fontSize=12;endArrow=open;startSize=14;endSize=14;sourcePerimeterSpacing=8;targetPerimeterSpacing=8;exitX=1;exitY=0.5;exitDx=0;exitDy=0;" edge="1" parent="1" source="Iy00GChJmjbiaG7sKxw5-40" target="Iy00GChJmjbiaG7sKxw5-30">
          <mxGeometry relative="1" as="geometry">
            <Array as="points">
              <mxPoint x="625" y="71" />
              <mxPoint x="625" y="166" />
            </Array>
          </mxGeometry>
        </mxCell>
        <mxCell id="Iy00GChJmjbiaG7sKxw5-40" value="自动生成&lt;br&gt;冲突则退出" style="rounded=1;whiteSpace=wrap;html=1;absoluteArcSize=1;arcSize=14;strokeWidth=2;shadow=1;sketch=1;hachureGap=4;fontFamily=Architects Daughter;fontSource=https%3A%2F%2Ffonts.googleapis.com%2Fcss%3Ffamily%3DArchitects%2BDaughter;" vertex="1" parent="1">
          <mxGeometry x="436" y="47" width="113.5" height="48" as="geometry" />
        </mxCell>
        <mxCell id="Iy00GChJmjbiaG7sKxw5-43" value="判重&lt;br&gt;重复则原始单号数字累加&lt;br&gt;多原始单号只处理第一个" style="rounded=1;whiteSpace=wrap;html=1;absoluteArcSize=1;arcSize=14;strokeWidth=2;shadow=1;sketch=1;hachureGap=4;fontFamily=Architects Daughter;fontSource=https%3A%2F%2Ffonts.googleapis.com%2Fcss%3Ffamily%3DArchitects%2BDaughter;" vertex="1" parent="1">
          <mxGeometry x="440" y="237" width="113.5" height="104" as="geometry" />
        </mxCell>
        <mxCell id="Iy00GChJmjbiaG7sKxw5-49" value="" style="endArrow=none;html=1;rounded=1;sketch=1;hachureGap=4;fontFamily=Architects Daughter;fontSource=https%3A%2F%2Ffonts.googleapis.com%2Fcss%3Ffamily%3DArchitects%2BDaughter;fontSize=12;startSize=14;endSize=14;sourcePerimeterSpacing=8;targetPerimeterSpacing=8;exitX=1;exitY=0.5;exitDx=0;exitDy=0;" edge="1" parent="1" source="Iy00GChJmjbiaG7sKxw5-43">
          <mxGeometry width="50" height="50" relative="1" as="geometry">
            <mxPoint x="584" y="270" as="sourcePoint" />
            <mxPoint x="625" y="154" as="targetPoint" />
            <Array as="points">
              <mxPoint x="628" y="289" />
            </Array>
          </mxGeometry>
        </mxCell>
        <mxCell id="Iy00GChJmjbiaG7sKxw5-50" value="oaidMd5为空" style="strokeWidth=2;html=1;shape=mxgraph.flowchart.decision;whiteSpace=wrap;sketch=1;hachureGap=4;fontFamily=Architects Daughter;fontSource=https%3A%2F%2Ffonts.googleapis.com%2Fcss%3Ffamily%3DArchitects%2BDaughter;fontSize=12;" vertex="1" parent="1">
          <mxGeometry x="906" y="129.5" width="113" height="73" as="geometry" />
        </mxCell>
      </root>
    </mxGraphModel>
  </diagram>
</mxfile>
